<svg xmlns="http://www.w3.org/2000/svg" width="800" height="600" viewBox="0 0 800 600">
  <!-- Background gradient -->
  <defs>
    <linearGradient id="bgGradient" x1="0%" y1="0%" x2="100%" y2="100%">
      <stop offset="0%" stop-color="#0a0a14" />
      <stop offset="100%" stop-color="#13131f" />
    </linearGradient>
    <linearGradient id="textGradient" x1="0%" y1="0%" x2="100%" y2="100%">
      <stop offset="0%" stop-color="#00f2ff" />
      <stop offset="100%" stop-color="#fc0fc0" />
    </linearGradient>
    <linearGradient id="clothingGradient" x1="0%" y1="0%" x2="100%" y2="100%">
      <stop offset="0%" stop-color="#00f2ff" />
      <stop offset="50%" stop-color="#7b68ee" />
      <stop offset="100%" stop-color="#fc0fc0" />
    </linearGradient>
    <filter id="glow" x="-50%" y="-50%" width="200%" height="200%">
      <feGaussianBlur stdDeviation="10" result="blur" />
      <feComposite in="SourceGraphic" in2="blur" operator="over" />
    </filter>
  </defs>
  
  <!-- Main background -->
  <rect width="800" height="600" fill="url(#bgGradient)" />
  
  <!-- Grid lines -->
  <g stroke="#ffffff" stroke-width="0.5" stroke-opacity="0.1">
    <g id="vertical-lines">
      <line x1="100" y1="0" x2="100" y2="600" />
      <line x1="200" y1="0" x2="200" y2="600" />
      <line x1="300" y1="0" x2="300" y2="600" />
      <line x1="400" y1="0" x2="400" y2="600" />
      <line x1="500" y1="0" x2="500" y2="600" />
      <line x1="600" y1="0" x2="600" y2="600" />
      <line x1="700" y1="0" x2="700" y2="600" />
    </g>
    <g id="horizontal-lines">
      <line x1="0" y1="100" x2="800" y2="100" />
      <line x1="0" y1="200" x2="800" y2="200" />
      <line x1="0" y1="300" x2="800" y2="300" />
      <line x1="0" y1="400" x2="800" y2="400" />
      <line x1="0" y1="500" x2="800" y2="500" />
    </g>
  </g>
  
  <!-- Decorative blobs -->
  <circle cx="150" cy="150" r="80" fill="#ff2a6d" opacity="0.3" filter="url(#glow)" />
  <circle cx="650" cy="450" r="100" fill="#05d9e8" opacity="0.3" filter="url(#glow)" />
  <circle cx="400" cy="100" r="60" fill="#7700ff" opacity="0.2" filter="url(#glow)" />
  
  <!-- Clothing illustration -->
  <g transform="translate(400, 300)" stroke="url(#clothingGradient)" stroke-width="3" fill="none" filter="url(#glow)">
    <!-- T-shirt outline -->
    <path d="M-100,-120 C-80,-120 -60,-130 -40,-140 H40 C60,-130 80,-120 100,-120 
             L120,-80 L100,-70 L90,-100 
             L90,80 C90,90 80,100 70,100 
             H-70 C-80,100 -90,90 -90,80 
             L-90,-100 L-100,-70 L-120,-80 Z" />
    
    <!-- Collar -->
    <path d="M-40,-140 C-30,-160 30,-160 40,-140" />
    
    <!-- Sleeve details -->
    <path d="M-90,-100 C-70,-90 -50,-90 -40,-100" />
    <path d="M90,-100 C70,-90 50,-90 40,-100" />
    
    <!-- Simple design element -->
    <circle cx="0" cy="-50" r="30" />
    <path d="M-20,-30 C0,0 0,0 20,-30" />
  </g>
  
  <!-- Text Prompt Visualization -->
  <g transform="translate(400, 480)">
    <!-- Prompt text box -->
    <rect x="-200" y="-30" width="400" height="60" rx="10" ry="10" 
          fill="rgba(0,0,0,0.5)" stroke="url(#textGradient)" stroke-width="2" />
    
    <!-- Text "A red floral t-shirt" -->
    <text x="0" y="0" font-family="'Courier New', monospace" font-size="18" fill="white" text-anchor="middle" dominant-baseline="middle">
      "A red floral t-shirt with short sleeves"
    </text>
    
    <!-- Animated cursor -->
    <rect id="cursor" x="185" y="-15" width="2" height="30" fill="#00f2ff">
      <animate attributeName="opacity" values="0;1;0" dur="1.2s" repeatCount="indefinite" />
    </rect>
  </g>
  
  <!-- Magic sparks around shirt -->
  <g fill="#ffffff">
    <circle cx="300" cy="200" r="2">
      <animate attributeName="opacity" values="0;1;0" dur="2s" repeatCount="indefinite" begin="0.1s" />
    </circle>
    <circle cx="500" cy="220" r="2">
      <animate attributeName="opacity" values="0;1;0" dur="1.5s" repeatCount="indefinite" begin="0.3s" />
    </circle>
    <circle cx="480" cy="350" r="2">
      <animate attributeName="opacity" values="0;1;0" dur="1.8s" repeatCount="indefinite" begin="0.5s" />
    </circle>
    <circle cx="320" cy="380" r="2">
      <animate attributeName="opacity" values="0;1;0" dur="1.6s" repeatCount="indefinite" begin="0.7s" />
    </circle>
    <circle cx="400" cy="180" r="2">
      <animate attributeName="opacity" values="0;1;0" dur="2.2s" repeatCount="indefinite" begin="0.9s" />
    </circle>
    <circle cx="450" cy="260" r="2">
      <animate attributeName="opacity" values="0;1;0" dur="1.7s" repeatCount="indefinite" begin="1.1s" />
    </circle>
    <circle cx="350" cy="270" r="2">
      <animate attributeName="opacity" values="0;1;0" dur="1.9s" repeatCount="indefinite" begin="1.3s" />
    </circle>
  </g>
  
  <!-- Title -->
  <text x="400" y="80" font-family="'Arial', sans-serif" font-size="36" font-weight="bold" fill="url(#textGradient)" text-anchor="middle" filter="url(#glow)">
    Text to Clothing
  </text>
  <text x="400" y="120" font-family="'Arial', sans-serif" font-size="20" fill="white" text-anchor="middle" opacity="0.8">
    Describe any clothing and try it on instantly
  </text>
</svg> 